<svg width="39" height="42" viewBox="0 0 39 42" fill="none" xmlns="http://www.w3.org/2000/svg">
<path opacity="0.75" d="M19.4966 30.2473C16.6953 30.2434 13.9642 31.0472 11.6934 32.5441C11.5251 32.6504 11.3188 32.6943 11.1163 32.6669C10.9139 32.6394 10.7305 32.5427 10.6033 32.3964L7.60439 29.0104C7.53551 28.9314 7.48488 28.8405 7.45556 28.7432C7.42624 28.6459 7.41883 28.5441 7.43379 28.4441C7.44874 28.3441 7.48575 28.2479 7.54257 28.1613C7.5994 28.0746 7.67486 27.9994 7.76441 27.9402C11.1609 25.6494 15.2731 24.4132 19.4966 24.4132C23.7202 24.4132 27.8323 25.6494 31.2289 27.9402C31.3184 27.9994 31.3939 28.0746 31.4507 28.1613C31.5075 28.2479 31.5445 28.3441 31.5595 28.4441C31.5745 28.5441 31.567 28.6459 31.5377 28.7432C31.5084 28.8405 31.4578 28.9314 31.3889 29.0104L28.3881 32.3981C28.2612 32.5444 28.078 32.641 27.8757 32.6681C27.6735 32.6953 27.4675 32.6509 27.2999 32.5441C25.029 31.0475 22.298 30.2436 19.4966 30.2473Z" fill="white"/>
<path opacity="0.5" d="M23.7929 37.5854L20.1369 41.7238C20.0607 41.8099 19.9643 41.8793 19.8549 41.927C19.7454 41.9747 19.6257 41.9995 19.5044 41.9995C19.3831 41.9995 19.2634 41.9747 19.1539 41.927C19.0445 41.8793 18.9481 41.8099 18.8718 41.7238L15.1989 37.5854C15.1272 37.5046 15.0749 37.411 15.0454 37.3106C15.0158 37.2102 15.0098 37.1053 15.0275 37.0026C15.0453 36.8999 15.0864 36.8018 15.1484 36.7146C15.2104 36.6273 15.2917 36.5529 15.3872 36.4962C16.618 35.786 18.0444 35.4089 19.5006 35.4089C20.9569 35.4089 22.3833 35.786 23.6141 36.4962C23.7091 36.5535 23.7898 36.6283 23.851 36.7158C23.9123 36.8034 23.9526 36.9017 23.9695 37.0044C23.9864 37.1072 23.9794 37.212 23.9489 37.3121C23.9185 37.4121 23.8653 37.5053 23.7929 37.5854Z" fill="white"/>
<path d="M38.688 19.5703C37.2663 18.5759 35.7548 17.6932 34.1698 16.9316L33.7519 16.734V13.1264L31.3666 11.5099L28.9852 13.135V14.956C28.7969 14.9027 28.6087 14.8495 28.4204 14.7997V12.8842L29.9001 11.8793V6.40432L22.6108 4.60568V8.7063H23.8608V13.9047L23.296 13.8377V9.22167H16.082V13.7981C15.8937 13.817 15.7055 13.8359 15.5172 13.8583V8.70458H18.8889V0L10.229 2.13878V9.83324H12.4015V14.3633C12.2133 14.4034 12.025 14.4446 11.8368 14.487V10.3486H6.17021V16.32L5.8464 16.4609C3.88736 17.3201 2.03071 18.3615 0.305975 19.5686C0.222084 19.6295 0.152266 19.705 0.100558 19.7908C0.0488501 19.8765 0.0162774 19.9707 0.00472338 20.068C-0.00683062 20.1653 0.00286326 20.2637 0.0332446 20.3575C0.0636259 20.4514 0.114092 20.5388 0.181725 20.6148L3.33316 24.188C3.46771 24.3377 3.66082 24.4338 3.87163 24.4559C4.08245 24.4781 4.29443 24.4245 4.46271 24.3065C8.78948 21.3171 14.068 19.6992 19.4951 19.6992C24.9222 19.6992 30.2007 21.3171 34.5275 24.3065C34.6954 24.4253 34.9076 24.4794 35.1187 24.4573C35.3298 24.4351 35.5231 24.3385 35.657 24.188L38.816 20.6233C38.8846 20.547 38.9358 20.4589 38.9665 20.3643C38.9973 20.2696 39.007 20.1703 38.9951 20.0722C38.9831 19.9741 38.9498 19.8791 38.8971 19.7929C38.8443 19.7067 38.7733 19.631 38.688 19.5703Z" fill="white"/>
</svg>
