<svg width="44" height="45" viewBox="0 0 44 45" fill="none" xmlns="http://www.w3.org/2000/svg">
<path opacity="0.75" d="M21.5451 32.4076C18.4494 32.4033 15.4314 33.2646 12.922 34.8685C12.736 34.9824 12.508 35.0294 12.2843 35C12.0606 34.9706 11.8579 34.867 11.7174 34.7102L8.40338 31.0823C8.32726 30.9977 8.27132 30.9003 8.23891 30.796C8.20651 30.6917 8.19832 30.5827 8.21485 30.4756C8.23138 30.3684 8.27227 30.2653 8.33506 30.1725C8.39786 30.0797 8.48125 29.9991 8.58021 29.9356C12.3336 27.4813 16.8778 26.1567 21.5451 26.1567C26.2124 26.1567 30.7567 27.4813 34.5101 29.9356C34.609 29.9991 34.6924 30.0797 34.7552 30.1725C34.818 30.2653 34.8589 30.3684 34.8754 30.4756C34.8919 30.5827 34.8838 30.6917 34.8514 30.796C34.819 30.9003 34.763 30.9977 34.6869 31.0823L31.3708 34.712C31.2306 34.8688 31.0281 34.9722 30.8046 35.0013C30.5811 35.0304 30.3535 34.9829 30.1683 34.8685C27.6587 33.2649 24.6408 32.4036 21.5451 32.4076Z" fill="#A188BE"/>
<path opacity="0.5" d="M26.2933 40.2706L22.2532 44.7047C22.1689 44.7969 22.0625 44.8713 21.9415 44.9224C21.8206 44.9735 21.6882 45 21.5542 45C21.4202 45 21.2878 44.9735 21.1669 44.9224C21.0459 44.8713 20.9394 44.7969 20.8552 44.7047L16.7964 40.2706C16.7171 40.1841 16.6593 40.0838 16.6267 39.9762C16.594 39.8687 16.5873 39.7562 16.6069 39.6462C16.6265 39.5362 16.6721 39.4311 16.7405 39.3376C16.809 39.2441 16.8989 39.1644 17.0044 39.1037C18.3645 38.3427 19.9408 37.9387 21.55 37.9387C23.1593 37.9387 24.7355 38.3427 26.0957 39.1037C26.2006 39.165 26.2898 39.2452 26.3575 39.339C26.4252 39.4328 26.4698 39.5381 26.4884 39.6482C26.5071 39.7583 26.4993 39.8705 26.4657 39.9778C26.4321 40.085 26.3733 40.1848 26.2933 40.2706Z" fill="#DDB1D3"/>
<path d="M42.7529 20.9682C41.1818 19.9028 39.5115 18.957 37.76 18.141L37.2981 17.9293V14.0641L34.6623 12.3321L32.0306 14.0733V16.0243C31.8226 15.9673 31.6145 15.9102 31.4065 15.8568V13.8045L33.0417 12.7278V6.86178L24.9865 4.93466V9.32819H26.3678V14.8979L25.7437 14.8261V9.88037H17.7717V14.7837C17.5637 14.804 17.3556 14.8242 17.1476 14.8482V9.32635H20.8735V0L11.3038 2.29155V10.5356H13.7046V15.3893C13.4965 15.4323 13.2885 15.4764 13.0804 15.5218V11.0878H6.8185V17.4858L6.46068 17.6367C4.2958 18.5573 2.24408 19.6731 0.338124 20.9663C0.245418 21.0316 0.168265 21.1126 0.111124 21.2044C0.0539827 21.2963 0.0179876 21.3972 0.00521966 21.5015C-0.0075483 21.6057 0.0031641 21.7111 0.0367375 21.8117C0.070311 21.9122 0.126079 22.0059 0.200819 22.0873L3.68337 25.9157C3.83205 26.0762 4.04546 26.1791 4.27842 26.2028C4.51139 26.2265 4.74564 26.1691 4.9316 26.0427C9.71298 22.8397 15.5461 21.1064 21.5434 21.1064C27.5407 21.1064 33.3739 22.8397 38.1553 26.0427C38.3408 26.17 38.5753 26.228 38.8086 26.2043C39.0419 26.1805 39.2554 26.077 39.4035 25.9157L42.8944 22.0965C42.9702 22.0147 43.0267 21.9203 43.0607 21.8189C43.0947 21.7175 43.1054 21.6111 43.0922 21.506C43.079 21.4008 43.0422 21.2991 42.9839 21.2067C42.9257 21.1144 42.8471 21.0333 42.7529 20.9682Z" fill="#7F8FC7"/>
</svg>
